<svg width="5290" height="1400" viewBox="0 0 5290 1400" fill="none" xmlns="http://www.w3.org/2000/svg">
<path d="M1257.56 605.544C1380.24 676.375 1389.37 890.244 1277.94 1083.24C1166.52 1276.23 976.741 1375.26 854.059 1304.43C731.377 1233.6 722.25 1019.73 833.673 826.736C945.097 633.744 1134.88 534.714 1257.56 605.544Z" fill="#FF4D06"/>
<path d="M142.44 605.738C19.7582 676.568 10.6313 890.438 122.055 1083.43C233.478 1276.42 423.258 1375.45 545.94 1304.62C668.622 1233.79 677.749 1019.92 566.326 826.929C454.902 633.938 265.122 534.907 142.44 605.738Z" fill="#FF4D06"/>
<path d="M1094.31 328.987C1094.31 187.326 913.653 72.4873 690.806 72.4873C467.959 72.4873 287.306 187.326 287.306 328.987C287.306 470.648 467.959 585.487 690.806 585.487C913.653 585.487 1094.31 470.648 1094.31 328.987Z" fill="#FF4D06"/>
<path d="M1965.12 1123.6C1910.52 1123.6 1860.96 1109.74 1816.44 1082.02C1772.76 1054.3 1737.9 1016.92 1711.86 969.88C1686.66 922 1674.06 868.66 1674.06 809.86C1674.06 750.22 1686.66 696.88 1711.86 649.84C1737.9 601.96 1772.76 564.16 1816.44 536.44C1860.96 507.88 1910.52 493.6 1965.12 493.6C2011.32 493.6 2052.06 503.68 2087.34 523.84C2123.46 543.16 2152.02 570.04 2173.02 604.48C2194.02 638.92 2204.52 677.98 2204.52 721.66V895.54C2204.52 939.22 2194.02 978.28 2173.02 1012.72C2152.86 1047.16 2124.72 1074.46 2088.6 1094.62C2052.48 1113.94 2011.32 1123.6 1965.12 1123.6ZM1987.8 992.56C2039.04 992.56 2080.2 975.34 2111.28 940.9C2143.2 906.46 2159.16 862.36 2159.16 808.6C2159.16 772.48 2152.02 740.56 2137.74 712.84C2123.46 685.12 2103.3 663.7 2077.26 648.58C2052.06 632.62 2022.24 624.64 1987.8 624.64C1954.2 624.64 1924.38 632.62 1898.34 648.58C1873.14 663.7 1852.98 685.12 1837.86 712.84C1823.58 740.56 1816.44 772.48 1816.44 808.6C1816.44 844.72 1823.58 876.64 1837.86 904.36C1852.98 932.08 1873.14 953.92 1898.34 969.88C1924.38 985 1954.2 992.56 1987.8 992.56ZM2150.34 1111V948.46L2174.28 801.04L2150.34 654.88V506.2H2288.94V1111H2150.34ZM2621.68 1111L2345.74 506.2H2499.46L2709.88 998.86H2619.16L2830.84 506.2H2978.26L2702.32 1111H2621.68ZM3294.73 1123.6C3234.25 1123.6 3179.65 1110.16 3130.93 1083.28C3083.05 1055.56 3044.83 1017.76 3016.27 969.88C2988.55 922 2974.69 868.24 2974.69 808.6C2974.69 748.96 2988.55 695.62 3016.27 648.58C3043.99 600.7 3081.37 562.9 3128.41 535.18C3176.29 507.46 3229.21 493.6 3287.17 493.6C3343.45 493.6 3393.01 506.62 3435.85 532.66C3479.53 558.7 3513.55 594.4 3537.91 639.76C3563.11 685.12 3575.71 736.78 3575.71 794.74C3575.71 804.82 3574.87 815.32 3573.19 826.24C3572.35 836.32 3570.67 847.66 3568.15 860.26H3071.71V746.86H3496.33L3444.67 792.22C3442.99 755.26 3435.85 724.18 3423.25 698.98C3410.65 673.78 3392.59 654.46 3369.07 641.02C3346.39 627.58 3318.25 620.86 3284.65 620.86C3249.37 620.86 3218.71 628.42 3192.67 643.54C3166.63 658.66 3146.47 680.08 3132.19 707.8C3117.91 734.68 3110.77 767.02 3110.77 804.82C3110.77 842.62 3118.33 875.8 3133.45 904.36C3148.57 932.92 3169.99 955.18 3197.71 971.14C3225.43 986.26 3257.35 993.82 3293.47 993.82C3324.55 993.82 3353.11 988.36 3379.15 977.44C3406.03 966.52 3428.71 950.56 3447.19 929.56L3535.39 1019.02C3505.99 1053.46 3470.29 1079.5 3428.29 1097.14C3386.29 1114.78 3341.77 1123.6 3294.73 1123.6ZM3661.61 1111V203.8H3800.21V1111H3661.61ZM3930.52 1111V506.2H4069.12V1111H3930.52ZM3999.82 395.32C3976.3 395.32 3956.56 387.34 3940.6 371.38C3925.48 355.42 3917.92 335.68 3917.92 312.16C3917.92 288.64 3925.48 268.9 3940.6 252.94C3956.56 236.98 3976.3 229 3999.82 229C4024.18 229 4043.92 236.98 4059.04 252.94C4074.16 268.9 4081.72 288.64 4081.72 312.16C4081.72 335.68 4074.16 355.42 4059.04 371.38C4043.92 387.34 4024.18 395.32 3999.82 395.32ZM4447.6 1123.6C4396.36 1123.6 4350.58 1112.26 4310.26 1089.58C4270.78 1066.9 4239.7 1035.82 4217.02 996.34C4195.18 956.02 4184.26 909.82 4184.26 857.74V506.2H4322.86V851.44C4322.86 880.84 4327.48 906.04 4336.72 927.04C4346.8 947.2 4361.08 962.74 4379.56 973.66C4398.88 984.58 4421.56 990.04 4447.6 990.04C4487.92 990.04 4518.58 978.28 4539.58 954.76C4561.42 930.4 4572.34 895.96 4572.34 851.44V506.2H4710.94V857.74C4710.94 910.66 4699.6 957.28 4676.92 997.6C4655.08 1037.08 4624.42 1068.16 4584.94 1090.84C4545.46 1112.68 4499.68 1123.6 4447.6 1123.6ZM5022.91 1123.6C4989.31 1123.6 4956.97 1119.4 4925.89 1111C4894.81 1101.76 4866.25 1089.16 4840.21 1073.2C4814.17 1056.4 4791.49 1036.24 4772.17 1012.72L4860.37 924.52C4881.37 948.88 4905.31 967.36 4932.19 979.96C4959.91 991.72 4990.99 997.6 5025.43 997.6C5056.51 997.6 5080.03 992.98 5095.99 983.74C5111.95 974.5 5119.93 961.06 5119.93 943.42C5119.93 924.94 5112.37 910.66 5097.25 900.58C5082.13 890.5 5062.39 882.1 5038.03 875.38C5014.51 867.82 4989.31 860.26 4962.43 852.7C4936.39 845.14 4911.19 835.06 4886.83 822.46C4863.31 809.02 4843.99 790.96 4828.87 768.28C4813.75 745.6 4806.19 716.2 4806.19 680.08C4806.19 641.44 4815.01 608.26 4832.65 580.54C4851.13 552.82 4876.75 531.4 4909.51 516.28C4943.11 501.16 4983.01 493.6 5029.21 493.6C5077.93 493.6 5120.77 502.42 5157.73 520.06C5195.53 536.86 5227.03 562.48 5252.23 596.92L5164.03 685.12C5146.39 663.28 5126.23 646.9 5103.55 635.98C5080.87 625.06 5054.83 619.6 5025.43 619.6C4997.71 619.6 4976.29 623.8 4961.17 632.2C4946.05 640.6 4938.49 652.78 4938.49 668.74C4938.49 685.54 4946.05 698.56 4961.17 707.8C4976.29 717.04 4995.61 725.02 5019.13 731.74C5043.49 738.46 5068.69 746.02 5094.73 754.42C5121.61 761.98 5146.81 772.9 5170.33 787.18C5194.69 800.62 5214.43 819.1 5229.55 842.62C5244.67 865.3 5252.23 895.12 5252.23 932.08C5252.23 990.88 5231.65 1037.5 5190.49 1071.94C5149.33 1106.38 5093.47 1123.6 5022.91 1123.6Z" fill="black"/>
</svg>
